<svg width="745" height="542" viewBox="0 0 745 542" fill="none" xmlns="http://www.w3.org/2000/svg">
<path fill-rule="evenodd" clip-rule="evenodd" d="M408.669 523.381C426.646 534.23 448.187 540.545 471.343 540.545C508.278 540.545 541.107 524.476 561.915 499.571C580.19 510.984 602.29 517.659 626.096 517.659C688.993 517.659 739.981 471.063 739.981 413.583C739.981 389.545 731.064 367.411 716.088 349.792C732.932 331.856 743.25 307.718 743.25 281.171C743.25 240.4 718.914 205.313 683.976 189.642C684.971 183.975 685.49 178.143 685.49 172.19C685.49 116.816 640.601 71.9274 585.228 71.9274C579.4 71.9274 573.688 72.4247 568.132 73.379C538.599 40.3823 495.68 19.6166 447.912 19.6166C420.051 19.6166 393.841 26.6803 370.974 39.1145C349.425 15.1041 318.152 0 283.35 0C254.227 0 227.574 10.5776 207.024 28.1007C195.073 24.0139 182.256 21.7962 168.92 21.7962C103.917 21.7962 51.2211 74.492 51.2211 139.496C51.2211 152.65 53.3791 165.301 57.3606 177.113C22.5568 202.927 2.39015e-05 244.319 2.39015e-05 290.979C2.39015e-05 321.032 9.35734 348.899 25.3174 371.826C25.1503 374.644 25.0656 377.484 25.0656 380.343C25.0656 458.589 88.4958 522.019 166.741 522.019C189.166 522.019 210.375 516.808 229.222 507.532C258.305 528.316 293.92 540.545 332.392 540.545C359.694 540.545 385.557 534.386 408.669 523.381Z" fill="#CDF0FF"/>
<path fill-rule="evenodd" clip-rule="evenodd" d="M354.012 82.8255C365.84 82.8255 375.896 90.4282 379.575 101.022C391.068 104.151 399.52 114.677 399.52 127.182C399.52 142.152 387.406 154.288 372.461 154.288C366.769 154.288 361.487 152.527 357.129 149.52C352.621 158.209 343.553 164.145 333.102 164.145C326.896 164.145 321.178 162.052 316.613 158.533C311.652 164.237 304.348 167.841 296.203 167.841C288.511 167.841 281.569 164.626 276.642 159.465C271.372 165.002 263.9 168.457 255.614 168.457C253.442 168.457 251.327 168.22 249.293 167.77C245.218 173.539 238.712 177.502 231.245 178.203C229.666 182.199 227.009 185.661 223.628 188.239C224.034 189.896 224.249 191.627 224.249 193.408C224.249 205.486 214.337 215.278 202.11 215.278C189.883 215.278 179.97 205.486 179.97 193.408C179.97 187.162 182.621 181.528 186.871 177.543C185.987 175.088 185.505 172.444 185.505 169.69C185.505 168.671 185.571 167.668 185.699 166.685C182.573 167.831 179.193 168.457 175.666 168.457C173.494 168.457 171.379 168.22 169.344 167.77C165.27 173.539 158.764 177.502 151.297 178.203C149.718 182.199 147.061 185.661 143.679 188.239C144.086 189.896 144.301 191.627 144.301 193.408C144.301 205.486 134.389 215.278 122.162 215.278C109.934 215.278 100.022 205.486 100.022 193.408C100.022 187.162 102.672 181.528 106.922 177.543C106.038 175.088 105.557 172.444 105.557 169.69C105.557 158.178 113.961 148.607 125.034 146.647C128.087 136.471 137.605 129.045 148.878 129.03C153.176 118.552 163.55 111.164 175.666 111.164C178.86 111.164 181.934 111.678 184.806 112.626C190.575 102.203 201.67 95.1466 214.41 95.1466C220.047 95.1466 225.362 96.528 230.036 98.9712C234.021 95.8052 239.062 93.9145 244.544 93.9145C249.403 93.9145 253.916 95.4002 257.655 97.9428C262.607 92.443 269.777 88.9861 277.753 88.9861C285.266 88.9861 292.064 92.0531 296.967 97.0054C301.918 90.6262 309.651 86.5218 318.342 86.5218C324.218 86.5218 329.656 88.3978 334.093 91.5845C339.038 86.1997 346.132 82.8255 354.012 82.8255Z" fill="#C4C4C4"/>
<path fill-rule="evenodd" clip-rule="evenodd" d="M88.9526 467.861L106.824 209.117H137.637L157.358 467.861H88.9526ZM168.759 467.861L186.631 209.117H217.444L237.164 467.861H168.759Z" fill="#6C63FF"/>
<path fill-rule="evenodd" clip-rule="evenodd" d="M220.754 252.549H183.631L182.78 264.87H221.693L220.754 252.549Z" fill="#CFCEDF"/>
<path fill-rule="evenodd" clip-rule="evenodd" d="M219.251 232.835H184.992L183.631 252.549H220.754L219.251 232.835Z" fill="#44B49F"/>
<path fill-rule="evenodd" clip-rule="evenodd" d="M140.948 252.549H103.824L102.973 264.87H141.887L140.948 252.549Z" fill="#CFCEDF"/>
<path fill-rule="evenodd" clip-rule="evenodd" d="M139.445 232.835H105.186L103.824 252.549H140.948L139.445 232.835Z" fill="#44B49F"/>
<path fill-rule="evenodd" clip-rule="evenodd" d="M122.847 467.861V209.117H106.824L88.9526 467.861H122.847ZM202.961 467.861V209.117H186.631L168.759 467.861H202.961Z" fill="black" fill-opacity="0.19"/>
<rect x="283.903" y="233.759" width="166.046" height="234.102" fill="#2F2E41"/>
<rect x="296.203" y="266.41" width="141.447" height="14.7854" fill="#ECEBFF"/>
<rect x="296.203" y="266.41" width="141.447" height="14.7854" fill="#ECEBFF"/>
<rect x="296.203" y="266.41" width="141.447" height="14.7854" fill="#ECEBFF"/>
<rect x="296.203" y="266.41" width="141.447" height="14.7854" fill="#ECEBFF"/>
<rect x="336.616" y="266.41" width="60.6201" height="14.7854" fill="black" fill-opacity="0.05"/>
<rect x="296.203" y="247.313" width="141.447" height="19.0978" fill="#6C63FF"/>
<path fill-rule="evenodd" clip-rule="evenodd" d="M295.868 293.768C296.484 293.562 297.151 293.562 297.768 293.768L462.659 348.827C463.883 349.236 464.709 350.382 464.709 351.673V465.41C464.709 467.067 463.366 468.41 461.709 468.41H131.927C130.27 468.41 128.927 467.067 128.927 465.41V351.673C128.927 350.382 129.752 349.236 130.976 348.827L295.868 293.768Z" fill="#CFCEDF"/>
<rect x="371.846" y="412.416" width="51.0439" height="49.2845" fill="#6C63FF"/>
<rect x="371.846" y="434.594" width="51.0439" height="27.1065" fill="white"/>
<rect x="169.516" y="400.095" width="172.196" height="61.6057" fill="#6C63FF"/>
<rect x="169.516" y="447.531" width="172.196" height="11.705" fill="white"/>
<rect x="169.516" y="412.416" width="162.356" height="3.69632" fill="black"/>
<rect x="169.516" y="412.416" width="162.356" height="3.69632" fill="black"/>
<rect x="179.355" y="428.433" width="162.356" height="3.69632" fill="black"/>
<rect x="179.355" y="428.433" width="162.356" height="3.69632" fill="black"/>
<rect x="169.516" y="445.067" width="172.196" height="3.69635" fill="black"/>
<rect x="169.516" y="445.067" width="172.196" height="3.69635" fill="black"/>
<rect x="168.901" y="414.264" width="172.811" height="16.0175" fill="black" fill-opacity="0.19"/>
<path fill-rule="evenodd" clip-rule="evenodd" d="M385.575 323.088H208.06L296.429 293.58C296.681 293.496 296.954 293.496 297.207 293.58L385.575 323.088Z" fill="black" fill-opacity="0.36"/>
<path fill-rule="evenodd" clip-rule="evenodd" d="M130.572 348.962L207.645 323.226V348.962H130.572Z" fill="black" fill-opacity="0.36"/>
<path fill-rule="evenodd" clip-rule="evenodd" d="M207.645 323.226L208.06 323.088H385.575L463.064 348.962H207.645V323.226Z" fill="black" fill-opacity="0.1"/>
<rect x="247.004" y="320.623" width="98.3978" height="4.92848" fill="black"/>
<path d="M303.428 323.088C303.428 327.09 300.19 330.329 296.203 330.329C292.216 330.329 288.978 327.09 288.978 323.088C288.978 319.085 292.216 315.847 296.203 315.847C300.19 315.847 303.428 319.085 303.428 323.088Z" fill="#6C63FF" stroke="black" stroke-width="4"/>
<rect x="169.516" y="363.131" width="172.196" height="24.6423" fill="#ECEBFF"/>
<rect x="169.516" y="363.131" width="172.196" height="24.6423" fill="#ECEBFF"/>
<rect x="169.516" y="363.131" width="172.196" height="24.6423" fill="#ECEBFF"/>
<rect x="169.516" y="363.131" width="172.196" height="24.6423" fill="#ECEBFF"/>
<rect x="218.715" y="363.131" width="73.7983" height="24.6423" fill="black" fill-opacity="0.05"/>
<rect x="371.846" y="363.131" width="51.0439" height="36.9634" fill="#ECEBFF"/>
<rect x="386.606" y="363.131" width="21.5245" height="36.9634" fill="black" fill-opacity="0.05"/>
<path fill-rule="evenodd" clip-rule="evenodd" d="M438.417 438.558C438.463 438.447 438.455 438.343 438.395 438.248C438.337 438.152 438.213 438.039 438.021 437.909C437.832 437.781 437.688 437.66 437.59 437.547C437.493 437.436 437.433 437.325 437.408 437.214C437.385 437.104 437.398 436.99 437.446 436.871C437.526 436.673 437.676 436.54 437.898 436.47C438.121 436.402 438.362 436.42 438.622 436.525C438.895 436.636 439.088 436.796 439.2 437.006C439.314 437.217 439.326 437.432 439.237 437.652L438.823 437.484C438.869 437.371 438.86 437.254 438.796 437.133C438.734 437.013 438.631 436.923 438.485 436.864C438.335 436.804 438.205 436.789 438.094 436.82C437.983 436.851 437.906 436.919 437.863 437.025C437.823 437.124 437.832 437.216 437.89 437.298C437.948 437.38 438.071 437.486 438.257 437.615C438.445 437.745 438.589 437.868 438.691 437.984C438.793 438.099 438.856 438.215 438.88 438.33C438.906 438.445 438.893 438.567 438.841 438.696C438.754 438.912 438.598 439.05 438.373 439.111C438.148 439.171 437.899 439.145 437.624 439.033C437.431 438.955 437.274 438.852 437.153 438.723C437.033 438.595 436.955 438.452 436.919 438.296C436.886 438.139 436.898 437.989 436.956 437.846L437.368 438.013C437.319 438.154 437.33 438.287 437.399 438.41C437.471 438.532 437.591 438.628 437.76 438.697C437.916 438.76 438.053 438.779 438.172 438.755C438.293 438.729 438.375 438.664 438.417 438.558ZM438.864 442.273C438.88 441.961 439.015 441.711 439.269 441.524C439.712 441.198 440.118 441.284 440.489 441.781L441.506 443.168L441.148 443.431L440.13 442.043C440.018 441.893 439.901 441.806 439.779 441.784C439.659 441.761 439.527 441.803 439.384 441.908C439.268 441.994 439.189 442.1 439.146 442.226C439.104 442.353 439.095 442.485 439.12 442.622L440.217 444.117L439.859 444.38L437.674 441.402L438.032 441.138L438.864 442.273ZM445.454 444.263C445.405 444.386 445.38 444.477 445.378 444.534L445.786 444.758L445.805 444.725C445.819 444.571 445.884 444.39 445.998 444.18L446.573 443.13C446.694 442.896 446.716 442.673 446.638 442.46C446.562 442.246 446.392 442.067 446.13 441.923C445.964 441.832 445.795 441.779 445.622 441.765C445.45 441.751 445.294 441.775 445.154 441.837C445.017 441.899 444.917 441.987 444.854 442.101L445.246 442.316C445.301 442.216 445.394 442.157 445.527 442.138C445.66 442.119 445.795 442.148 445.934 442.224C446.093 442.312 446.191 442.418 446.228 442.545C446.265 442.67 446.247 442.8 446.172 442.937L446.074 443.116L445.695 442.908C445.367 442.728 445.077 442.655 444.824 442.687C444.572 442.72 444.381 442.855 444.251 443.092C444.144 443.288 444.128 443.489 444.201 443.696C444.276 443.902 444.426 444.066 444.651 444.19C444.902 444.328 445.17 444.352 445.454 444.263ZM445.293 443.977C445.149 443.98 445.016 443.948 444.894 443.881C444.766 443.811 444.68 443.719 444.636 443.606C444.593 443.492 444.604 443.374 444.671 443.251C444.824 442.971 445.14 442.963 445.617 443.225L445.923 443.392L445.666 443.861C445.562 443.935 445.437 443.974 445.293 443.977ZM452.934 443.769L452.59 443.978L452.354 444.861L451.924 444.746L452.878 441.176L453.307 441.291L452.731 443.45L453.034 443.235L454.037 442.617L454.559 442.757L453.302 443.546L454.001 445.303L453.498 445.168L452.934 443.769ZM457.434 444.628C457.569 444.918 457.804 445.12 458.137 445.233C458.55 445.374 458.913 445.32 459.227 445.073L459.038 444.785C458.926 444.859 458.809 444.908 458.685 444.934C458.561 444.96 458.425 444.947 458.277 444.897C458.067 444.826 457.92 444.693 457.834 444.497C457.75 444.301 457.746 444.08 457.822 443.835L459.49 444.402L459.549 444.226C459.682 443.833 459.696 443.501 459.59 443.229C459.484 442.958 459.271 442.767 458.951 442.659C458.755 442.592 458.555 442.585 458.35 442.637C458.146 442.688 457.965 442.794 457.805 442.955C457.648 443.115 457.528 443.318 457.445 443.562L457.419 443.64C457.294 444.007 457.299 444.337 457.434 444.628ZM458.343 443.047C458.5 442.961 458.664 442.947 458.834 443.005C459.01 443.065 459.129 443.172 459.192 443.325C459.256 443.477 459.257 443.662 459.197 443.881L459.186 443.913L457.953 443.493C458.056 443.279 458.186 443.13 458.343 443.047ZM464.709 445.067V444.451H468.399V445.067H464.709ZM478.277 445.099C478.251 445.229 478.242 445.323 478.25 445.38L478.693 445.526L478.705 445.489C478.691 445.336 478.722 445.146 478.796 444.919L479.171 443.781C479.248 443.529 479.228 443.306 479.114 443.111C479 442.914 478.801 442.769 478.516 442.675C478.337 442.616 478.161 442.595 477.988 442.612C477.817 442.63 477.668 442.682 477.542 442.768C477.418 442.854 477.335 442.959 477.294 443.082L477.719 443.222C477.754 443.114 477.836 443.039 477.963 442.996C478.09 442.954 478.228 442.957 478.379 443.007C478.551 443.064 478.666 443.151 478.725 443.269C478.785 443.385 478.79 443.517 478.742 443.664L478.678 443.859L478.267 443.723C477.913 443.606 477.614 443.586 477.371 443.665C477.129 443.742 476.966 443.909 476.881 444.167C476.812 444.379 476.831 444.579 476.941 444.769C477.052 444.958 477.23 445.093 477.473 445.173C477.745 445.263 478.013 445.239 478.277 445.099ZM478.066 444.847C477.925 444.877 477.788 444.87 477.656 444.826C477.517 444.78 477.416 444.705 477.353 444.601C477.289 444.498 477.279 444.379 477.323 444.247C477.423 443.944 477.731 443.878 478.248 444.049L478.579 444.158L478.412 444.665C478.323 444.757 478.207 444.818 478.066 444.847ZM485.75 444.206L486.073 444.258C485.868 444.013 485.797 443.733 485.861 443.419C485.971 442.879 486.33 442.67 486.939 442.789L488.621 443.134L488.533 443.57L486.847 443.225C486.663 443.189 486.519 443.204 486.414 443.269C486.31 443.333 486.24 443.452 486.204 443.626C486.175 443.768 486.187 443.9 486.241 444.022C486.294 444.144 486.376 444.248 486.487 444.332L488.301 444.704L488.212 445.14L485.666 444.619L485.75 444.206ZM494.671 442.828C494.668 443.132 494.791 443.445 495.039 443.766C495.297 444.101 495.575 444.309 495.873 444.389C496.172 444.467 496.443 444.413 496.683 444.227C496.927 444.039 497.056 443.809 497.072 443.538L497.208 443.715C497.343 443.89 497.4 444.063 497.378 444.234C497.357 444.404 497.261 444.556 497.09 444.688C496.872 444.856 496.616 444.906 496.321 444.836L496.301 445.188C496.461 445.241 496.637 445.244 496.828 445.198C497.019 445.152 497.188 445.071 497.336 444.956C497.603 444.751 497.755 444.51 497.794 444.235C497.834 443.959 497.751 443.687 497.546 443.42L495.996 441.409L495.674 441.657L495.833 441.899C495.556 441.83 495.291 441.893 495.04 442.087C494.796 442.276 494.673 442.523 494.671 442.828ZM495.988 443.971C495.791 443.911 495.602 443.765 495.423 443.533C495.222 443.271 495.118 443.036 495.111 442.828C495.105 442.621 495.187 442.451 495.358 442.318C495.574 442.152 495.811 442.125 496.071 442.239L496.796 443.18C496.847 443.462 496.762 443.689 496.541 443.86C496.369 443.993 496.185 444.03 495.988 443.971ZM512.367 444.54C512.191 444.895 511.969 445.141 511.699 445.278C511.43 445.414 511.157 445.414 510.88 445.276C510.597 445.136 510.419 444.936 510.346 444.676L509.79 445.799L509.392 445.601L510.989 442.371L511.353 442.552L511.244 442.82C511.506 442.699 511.781 442.71 512.07 442.854C512.35 442.992 512.518 443.208 512.576 443.5C512.635 443.792 512.571 444.127 512.385 444.503L512.367 444.54ZM511.991 444.297C512.121 444.034 512.168 443.799 512.132 443.591C512.095 443.383 511.979 443.23 511.784 443.133C511.543 443.014 511.309 443.031 511.083 443.186L510.531 444.3C510.545 444.572 510.675 444.769 510.92 444.891C511.111 444.986 511.3 444.985 511.486 444.89C511.675 444.794 511.843 444.596 511.991 444.297ZM518.88 445.001C518.914 445.129 518.948 445.217 518.98 445.264L519.442 445.199L519.436 445.16C519.356 445.029 519.299 444.845 519.266 444.609L519.098 443.422C519.055 443.162 518.939 442.971 518.75 442.847C518.56 442.721 518.318 442.68 518.021 442.722C517.834 442.748 517.667 442.808 517.52 442.9C517.374 442.992 517.264 443.105 517.189 443.239C517.116 443.371 517.088 443.501 517.106 443.63L517.549 443.567C517.533 443.454 517.572 443.35 517.667 443.256C517.762 443.161 517.888 443.103 518.045 443.081C518.224 443.055 518.366 443.082 518.471 443.161C518.576 443.238 518.64 443.354 518.661 443.508L518.69 443.711L518.262 443.772C517.892 443.824 517.616 443.94 517.433 444.118C517.25 444.294 517.178 444.517 517.216 444.785C517.248 445.006 517.354 445.177 517.537 445.299C517.72 445.419 517.939 445.461 518.192 445.425C518.476 445.384 518.705 445.243 518.88 445.001ZM518.58 444.869C518.466 444.958 518.34 445.012 518.202 445.032C518.058 445.052 517.934 445.03 517.831 444.965C517.728 444.901 517.667 444.799 517.648 444.661C517.603 444.345 517.85 444.149 518.389 444.072L518.734 444.023L518.809 444.552C518.77 444.674 518.693 444.78 518.58 444.869ZM523.84 445.176C523.822 445.11 523.797 445.041 523.765 444.969C523.646 444.703 523.451 444.573 523.182 444.58L521.5 445.339L521.317 444.933L523.688 443.864L523.865 444.259L523.594 444.389C523.866 444.427 524.056 444.568 524.166 444.812C524.202 444.891 524.218 444.956 524.216 445.006L523.84 445.176ZM528.931 443.354C528.996 443.262 529.089 443.217 529.209 443.217C529.323 443.217 529.414 443.268 529.483 443.371C529.55 443.472 529.584 443.607 529.584 443.775C529.584 443.958 529.54 444.106 529.454 444.218C529.366 444.329 529.247 444.388 529.098 444.396L529.098 444.841C529.252 444.841 529.395 444.796 529.528 444.707C529.659 444.615 529.762 444.489 529.836 444.329C529.909 444.169 529.946 443.984 529.946 443.776C529.947 443.479 529.877 443.237 529.738 443.051C529.597 442.865 529.411 442.772 529.178 442.772C529.039 442.771 528.921 442.805 528.825 442.872C528.727 442.938 528.644 443.04 528.575 443.178C528.506 443.316 528.447 443.496 528.397 443.719C528.347 443.941 528.295 444.094 528.241 444.179C528.186 444.264 528.105 444.306 527.998 444.306C527.884 444.306 527.792 444.26 527.722 444.169C527.651 444.077 527.616 443.951 527.616 443.788C527.616 443.631 527.66 443.501 527.749 443.399C527.837 443.294 527.942 443.242 528.063 443.242L528.064 442.795C527.827 442.795 527.632 442.887 527.48 443.071C527.328 443.254 527.251 443.493 527.251 443.788C527.251 444.069 527.324 444.3 527.472 444.481C527.619 444.661 527.799 444.751 528.012 444.751C528.14 444.751 528.251 444.72 528.344 444.658C528.437 444.594 528.517 444.496 528.584 444.364C528.651 444.231 528.709 444.052 528.757 443.828C528.805 443.602 528.863 443.444 528.931 443.354ZM537.844 447.054C537.605 447.174 537.331 447.167 537.023 447.036C536.769 446.927 536.606 446.77 536.535 446.565C536.466 446.359 536.492 446.111 536.615 445.819L537.279 444.261L537.688 444.436L537.028 445.983C536.873 446.346 536.943 446.591 537.238 446.717C537.55 446.85 537.807 446.823 538.01 446.634L538.753 444.892L539.161 445.067L538.14 447.461L537.751 447.295L537.844 447.054ZM539.242 452.962L538.861 452.46L538.507 452.729L538.888 453.231L538.512 453.518L538.72 453.792L539.096 453.505L540.072 454.79C540.206 454.967 540.349 455.072 540.502 455.107C540.655 455.141 540.811 455.098 540.969 454.978C541.057 454.911 541.138 454.829 541.211 454.733L540.993 454.445C540.933 454.515 540.883 454.565 540.842 454.597C540.759 454.66 540.685 454.684 540.62 454.669C540.553 454.653 540.489 454.604 540.426 454.521L539.45 453.236L539.836 452.941L539.628 452.667L539.242 452.962ZM542.253 459.442L542.26 459.888L541.163 459.907L541.979 460.317L541.78 460.715L540.204 459.924L538.571 459.953L538.563 459.507L539.485 459.491L539.656 459.15L540.306 459.477L542.253 459.442ZM538.69 459.131C538.715 459.192 538.76 459.239 538.824 459.271C538.888 459.303 538.952 459.311 539.014 459.294C539.077 459.275 539.128 459.227 539.167 459.15C539.206 459.072 539.214 459.003 539.191 458.941C539.168 458.879 539.124 458.832 539.06 458.8C538.995 458.768 538.931 458.76 538.866 458.778C538.802 458.796 538.75 458.844 538.712 458.921C538.673 458.999 538.666 459.069 538.69 459.131Z" fill="#6C63FF"/>
<rect x="430.27" y="446.299" width="105.778" height="22.178" rx="3" fill="#ECEBFF"/>
<mask id="path-33-outside-1" maskUnits="userSpaceOnUse" x="430.5" y="445.299" width="106" height="7" fill="black">
<rect fill="white" x="430.5" y="445.299" width="106" height="7"/>
<path fill-rule="evenodd" clip-rule="evenodd" d="M532.357 446.299H433.96C432.601 446.299 431.5 447.402 431.5 448.763C431.5 450.124 432.601 451.228 433.96 451.228H532.357C533.716 451.228 534.817 450.124 534.817 448.763C534.817 447.402 533.716 446.299 532.357 446.299Z"/>
</mask>
<path d="M433.96 447.299H532.357V445.299H433.96V447.299ZM432.5 448.763C432.5 447.953 433.155 447.299 433.96 447.299V445.299C432.047 445.299 430.5 446.852 430.5 448.763H432.5ZM433.96 450.228C433.155 450.228 432.5 449.574 432.5 448.763H430.5C430.5 450.675 432.047 452.228 433.96 452.228V450.228ZM532.357 450.228H433.96V452.228H532.357V450.228ZM533.817 448.763C533.817 449.574 533.162 450.228 532.357 450.228V452.228C534.27 452.228 535.817 450.675 535.817 448.763H533.817ZM532.357 447.299C533.162 447.299 533.817 447.953 533.817 448.763H535.817C535.817 446.852 534.27 445.299 532.357 445.299V447.299Z" fill="black" mask="url(#path-33-outside-1)"/>
<path fill-rule="evenodd" clip-rule="evenodd" d="M433.96 451.228C435.318 451.228 436.42 450.124 436.42 448.763C436.42 447.402 435.318 446.299 433.96 446.299C432.601 446.299 431.5 447.402 431.5 448.763C431.5 450.124 432.601 451.228 433.96 451.228ZM532.357 451.228C533.716 451.228 534.817 450.124 534.817 448.763C534.817 447.402 533.716 446.299 532.357 446.299C530.999 446.299 529.898 447.402 529.898 448.763C529.898 450.124 530.999 451.228 532.357 451.228Z" fill="#85848F"/>
<path d="M440.84 431.514C440.84 433.28 439.411 434.71 437.65 434.71C435.889 434.71 434.46 433.28 434.46 431.514C434.46 429.748 435.889 428.317 437.65 428.317C439.411 428.317 440.84 429.748 440.84 431.514Z" fill="#ECEBFF" stroke="black"/>
<rect x="68.658" y="459.852" width="485.839" height="8.62482" fill="black"/>
<path d="M621.78 322.511L579.837 317.444L582.136 281.41H621.78V322.511Z" fill="#FFB6B6"/>
<path d="M513.827 311.639L520.757 314.782L527.169 330.806L534.964 327.682L509.044 262.912L501.249 266.036L516.926 305.21L510.747 301.864L490.54 292.544L481.059 296.343L506.426 308.293L497.254 342.796L506.397 339.132L513.827 311.639Z" fill="#5750CF"/>
<path d="M626.469 229.147L586.087 229.652C585.329 229.652 584.602 229.35 584.066 228.813C583.53 228.277 583.229 227.55 583.228 226.791V213.438C583.228 207.789 585.47 202.371 589.462 198.376C593.453 194.381 598.867 192.137 604.512 192.137C610.157 192.137 615.571 194.381 619.562 198.376C623.554 202.371 625.796 207.789 625.796 213.438L629.328 226.286C629.328 227.045 629.026 227.772 628.49 228.308C627.954 228.845 627.227 229.146 626.47 229.147H626.469Z" fill="#2F2E41"/>
<path d="M596.625 482.367L588.515 480.186L593.066 447.845L605.035 451.063L596.625 482.367Z" fill="#FFB6B6"/>
<path d="M639.668 464.995L632.172 468.781L612.314 439.942L623.379 434.356L639.668 464.995Z" fill="#FFB6B6"/>
<path d="M604.336 229.514C612.477 229.514 619.076 222.909 619.076 214.763C619.076 206.616 612.477 200.011 604.336 200.011C596.195 200.011 589.596 206.616 589.596 214.763C589.596 222.909 596.195 229.514 604.336 229.514Z" fill="#FFB8B8"/>
<path d="M616.007 454.51L581.486 366.416C569.132 332.642 580.17 309.365 580.283 309.134L580.34 309.02L580.458 308.977C581.875 314.499 614.017 314.123 621.382 305.618C625.681 309.232 631.403 317.742 632.629 327.91C633.91 338.82 632.939 349.876 629.775 360.394L616.177 406.526L633 444.454L616.007 454.51Z" fill="#2F2E41"/>
<path d="M599.36 399.867L586.896 463.121L603.496 466.253L613.941 411.501L599.36 399.867Z" fill="#2F2E41"/>
<path d="M581.156 292.009C583.811 292.719 610.062 303.545 622.516 292.576L632.288 244.287L620.58 240.592L616.494 235.619C616.052 235.08 615.494 234.647 614.861 234.354C614.229 234.06 613.538 233.913 612.841 233.923L598.317 234.117C597.674 234.126 597.04 234.268 596.455 234.535C595.87 234.801 595.347 235.185 594.917 235.663L590.264 240.856L579.755 243.303L581.156 292.009Z" fill="#6C63FF"/>
<path fill-rule="evenodd" clip-rule="evenodd" d="M605.157 229.491C604.886 229.506 604.612 229.514 604.336 229.514C600.191 229.514 596.445 227.801 593.767 225.044C593.919 224.811 594.087 224.587 594.271 224.375C595.271 223.218 596.66 222.47 598.174 222.271C599.689 222.073 601.224 222.438 602.487 223.298C603.241 223.801 603.875 224.464 604.345 225.24C604.815 226.016 605.11 226.885 605.208 227.787C605.27 228.356 605.252 228.93 605.157 229.491Z" fill="black" fill-opacity="0.13"/>
<path fill-rule="evenodd" clip-rule="evenodd" d="M632.186 244.255C631.499 245.688 631.211 247.612 631.176 249.786L632.288 244.287L632.186 244.255ZM627.669 267.112C624.437 262.624 619.629 255.175 612.605 243.732C609.11 239.797 606.489 235.425 606.489 235.425C606.489 235.425 600.372 236.299 597.314 238.048C598.766 245.316 599.938 247.247 601.529 249.868C601.852 250.401 602.193 250.962 602.556 251.603C605.839 257.38 615.027 268.395 621.744 276.447C622.916 277.852 624.013 279.167 624.99 280.349L627.669 267.112Z" fill="black" fill-opacity="0.12"/>
<path d="M602.173 223.538C602.926 224.042 603.561 224.705 604.031 225.48C604.501 226.256 604.795 227.125 604.893 228.027C604.991 228.929 604.891 229.841 604.598 230.699C604.306 231.558 603.829 232.342 603.201 232.996L613.21 252.639L601.832 251.365L594.072 232.907C593.041 231.779 592.459 230.311 592.438 228.783C592.417 227.254 592.957 225.771 593.957 224.615C594.956 223.459 596.345 222.71 597.86 222.512C599.375 222.313 600.909 222.679 602.173 223.538Z" fill="#FFB6B6"/>
<path d="M640.243 255.019C638.82 246.793 632.266 243.732 632.266 243.732C632.266 243.732 622.217 241.109 616.537 235.862C615.664 237.174 638.14 294.016 611.731 244.607C609.25 239.964 606.052 236.299 606.052 236.299C606.052 236.299 599.498 237.174 596.44 238.923C598.187 247.668 599.529 248.686 601.683 252.477C606.784 261.456 626.344 294.34 632.266 287.02C639.693 277.838 641.666 263.245 640.243 255.019Z" fill="#6C63FF"/>
<path d="M523.106 327.603C523.229 326.705 523.548 325.844 524.04 325.082C524.531 324.32 525.184 323.675 525.952 323.193C526.719 322.711 527.583 322.403 528.483 322.291C529.382 322.179 530.295 322.266 531.158 322.546L544.441 304.955L548.266 315.754L535.065 330.803C534.502 332.224 533.437 333.389 532.072 334.076C530.708 334.763 529.138 334.924 527.662 334.529C526.187 334.134 524.907 333.211 524.067 331.934C523.227 330.657 522.884 329.116 523.105 327.603H523.106Z" fill="#FFB6B6"/>
<path d="M584.424 247.118L580.023 243.246C580.023 243.246 575.412 244.41 572.45 252.771C569.488 261.132 531.681 317.184 531.681 317.184L544.75 323.256L588.12 274.965L584.424 247.118Z" fill="#6C63FF"/>
<path d="M619.696 213.789H599.093C598.706 213.789 598.333 213.647 598.043 213.391C597.752 213.135 597.566 212.781 597.517 212.397L597.25 210.262C597.224 210.056 597.133 209.865 596.989 209.717C596.845 209.568 596.657 209.471 596.452 209.439C596.248 209.407 596.039 209.442 595.857 209.539C595.675 209.637 595.529 209.791 595.441 209.978L594.09 212.872C593.962 213.146 593.758 213.377 593.503 213.539C593.249 213.702 592.953 213.788 592.651 213.789H589.522C589.101 213.79 588.697 213.623 588.399 213.326C588.101 213.028 587.934 212.625 587.933 212.204C587.933 212.152 587.935 212.1 587.94 212.048L589.174 199.149C589.201 198.873 589.298 198.609 589.457 198.382C589.616 198.155 589.831 197.973 590.081 197.854C599.516 193.446 609.084 193.452 618.52 197.871C618.759 197.984 618.966 198.154 619.123 198.367C619.28 198.58 619.381 198.829 619.418 199.091L621.267 211.973C621.299 212.199 621.283 212.429 621.219 212.647C621.155 212.866 621.044 213.068 620.895 213.24C620.746 213.412 620.562 213.55 620.354 213.645C620.147 213.739 619.922 213.788 619.695 213.788L619.696 213.789Z" fill="#2F2E41"/>
<path d="M600.721 488.934L595.371 488.493L594.823 483.483L591.971 488.212L577.784 487.043C577.104 486.986 576.459 486.72 575.944 486.281C575.428 485.842 575.069 485.255 574.919 484.604C574.769 483.953 574.836 483.274 575.109 482.664C575.382 482.055 575.849 481.548 576.439 481.216L588.398 474.51L588.808 469.525L600.668 471.202L600.721 488.934Z" fill="#2F2E41"/>
<path d="M650.616 477.131L646.071 480.107L642.488 476.287L643.181 481.998L631.125 489.891C630.548 490.269 629.866 490.451 629.179 490.408C628.492 490.366 627.837 490.102 627.309 489.655C626.781 489.208 626.407 488.602 626.243 487.925C626.079 487.247 626.132 486.535 626.396 485.89L631.73 472.846L628.928 468.447L639.445 462.43L650.616 477.131Z" fill="#2F2E41"/>
</svg>
